<svg width="48" height="48" viewBox="0 0 48 48" fill="none" xmlns="http://www.w3.org/2000/svg">
<rect x="0.5" y="0.5" width="47" height="47" rx="7.5" fill="#F8F8F8"/>
<rect x="0.5" y="0.5" width="47" height="47" rx="7.5" stroke="#322C3C"/>
<g clip-path="url(#clip0_8874_20038)">
<path d="M27.0001 14.3999V17.9999C27.0001 18.6626 27.5373 19.1999 28.2001 19.1999H31.8001M20.4001 19.1999H22.8001M20.4001 22.7999H27.6001M20.4001 26.3999H27.6001M30.0001 16.1999C29.466 15.722 28.9118 15.1553 28.5619 14.7872C28.3291 14.5422 28.0074 14.3999 27.6695 14.3999H18.5998C17.2743 14.3999 16.1998 15.4744 16.1998 16.7999L16.1997 31.1998C16.1997 32.5253 17.2742 33.5998 18.5997 33.5998L29.3997 33.5999C30.7252 33.5999 31.7997 32.5254 31.7998 31.2L31.8001 18.4777C31.8001 18.1709 31.683 17.8759 31.4701 17.655C31.0763 17.2465 30.4187 16.5744 30.0001 16.1999Z" stroke="#322C3C" stroke-width="1.5" stroke-linecap="round" stroke-linejoin="round"/>
</g>
<defs>
<clipPath id="clip0_8874_20038">
<rect width="24" height="24" fill="white" transform="translate(12 12)"/>
</clipPath>
</defs>
</svg>
