<svg width="65" height="66" viewBox="0 0 65 66" fill="none" xmlns="http://www.w3.org/2000/svg">
<path d="M46.9374 20.4639L43.1094 18.4852V10.1516C43.1089 9.88355 42.9839 9.63091 42.7712 9.46756L32.0116 1.18006C31.8601 1.06327 31.6741 1 31.483 1C31.2917 1 31.1058 1.06327 30.9545 1.18006L20.1937 9.46539C19.9815 9.62895 19.8571 9.88159 19.8564 10.1497V26.1998L17.4685 27.4314H17.4687C17.3273 27.5044 17.2088 27.6151 17.1263 27.7509C17.0436 27.8868 17 28.0427 17 28.2018V60.8004C17 60.9957 17.066 61.1853 17.1873 61.3385C17.3087 61.4917 17.4782 61.5992 17.6684 61.644L30.3104 64.6101C30.3753 64.6255 30.442 64.6334 30.5086 64.6334C30.5512 64.6331 30.5935 64.63 30.6354 64.6238L46.6665 62.2511V62.2509C46.872 62.2204 47.0599 62.1169 47.1957 61.9597C47.3313 61.8023 47.406 61.6015 47.406 61.3935V21.2338C47.4062 21.0749 47.3624 20.919 47.2799 20.7831C47.1972 20.6473 47.0787 20.537 46.9374 20.464L46.9374 20.4639ZM21.5896 10.5791L31.4826 2.96052L41.3761 10.5791V17.5899L30.9079 12.1791C30.6392 12.0399 30.3176 12.0511 30.0592 12.2083C29.8008 12.3657 29.6432 12.6463 29.6434 12.9489V21.1421L21.5894 25.3041L21.5896 10.5791ZM18.7329 53.4975L23.3568 51.1082H23.357C23.6318 50.9661 23.8102 50.688 23.8246 50.3787C23.839 50.0695 23.6873 49.7761 23.4268 49.6089C23.1661 49.442 22.8363 49.4265 22.5612 49.5687L18.7296 51.5469V47.6344L21.6436 46.1292H21.6438C21.9186 45.987 22.097 45.709 22.1114 45.3998C22.1258 45.0905 21.9741 44.797 21.7134 44.6301C21.4529 44.4629 21.1229 44.4475 20.848 44.5896L18.727 45.6844L18.7268 41.2315L21.6408 39.7263H21.641C21.9159 39.5841 22.0943 39.3061 22.1086 38.9969C22.123 38.6876 21.9713 38.3943 21.7109 38.2272C21.4502 38.06 21.1203 38.0448 20.8453 38.1868L18.7243 39.2815V37.571L23.3482 35.1818C23.623 35.0396 23.8014 34.7616 23.8158 34.4525C23.8302 34.1431 23.6784 33.8496 23.418 33.6827C23.1573 33.5155 22.8275 33.5001 22.5524 33.6423L18.7208 35.6204V28.731L29.6299 23.0922V62.6713L18.7332 60.1117L18.7329 53.4975ZM45.6733 60.6437L31.3733 62.7606V14.3714L45.6733 21.7608V60.6437ZM33.2036 26.8713C33.2209 26.6422 33.3286 26.4293 33.5028 26.2795C33.6771 26.1297 33.9035 26.0552 34.1327 26.0721L35.4238 26.1693C35.7238 26.1932 35.99 26.3709 36.1271 26.639C36.264 26.9071 36.2521 27.227 36.0955 27.4841C35.9392 27.7412 35.6605 27.8988 35.3594 27.9003H35.2911L34.0027 27.8004C33.7734 27.7835 33.5603 27.676 33.4102 27.5016C33.2602 27.3273 33.186 27.1005 33.2036 26.8713ZM37.2404 27.1758H37.2402C37.2576 26.9466 37.3653 26.7336 37.5394 26.5837C37.7138 26.4339 37.9404 26.3595 38.1695 26.3766L39.4607 26.4731C39.7607 26.4968 40.0269 26.6747 40.1637 26.9428C40.3008 27.2109 40.289 27.5306 40.1324 27.7879C39.9759 28.045 39.6972 28.2026 39.3963 28.2041H39.328L38.0368 28.1076H38.0366C37.8081 28.089 37.5961 27.9805 37.4474 27.8057C37.2986 27.6309 37.225 27.4045 37.243 27.1758L37.2404 27.1758ZM41.2773 27.4796L41.2771 27.4794C41.294 27.2503 41.4015 27.0372 41.5759 26.8872C41.7502 26.7371 41.977 26.6629 42.2062 26.6804L43.4973 26.7776C43.7997 26.7983 44.0691 26.9754 44.2081 27.2447C44.3469 27.5141 44.3348 27.8364 44.1763 28.0947C44.0178 28.3528 43.736 28.5096 43.433 28.5079H43.3646L42.0735 28.4108C41.8454 28.3913 41.6341 28.2826 41.4859 28.1078C41.3376 27.9332 41.2646 27.707 41.2826 27.4788L41.2773 27.4796ZM33.2038 32.65C33.2209 32.4208 33.3286 32.208 33.5028 32.0582C33.6771 31.9084 33.9037 31.8337 34.1329 31.851L35.424 31.9482C35.7264 31.9689 35.9957 32.146 36.1345 32.4153C36.2733 32.6847 36.2615 33.0069 36.103 33.2653C35.9445 33.5234 35.6627 33.6802 35.3596 33.6785H35.2913L34.0002 33.5814V33.5812C33.771 33.5632 33.5586 33.4551 33.4092 33.2805C33.2598 33.1059 33.186 32.8791 33.2038 32.6499L33.2038 32.65ZM37.2407 32.9538H37.2405C37.258 32.7247 37.3657 32.5121 37.5398 32.3622C37.714 32.2124 37.9406 32.1377 38.1698 32.1547L39.4609 32.2518C39.763 32.2727 40.0326 32.4498 40.1714 32.7192C40.3101 32.9885 40.2981 33.3108 40.1398 33.569C39.9814 33.8273 39.6995 33.9841 39.3965 33.9822H39.3282L38.0371 33.8851H38.0368C37.8081 33.8664 37.5961 33.7577 37.4471 33.5829C37.2984 33.4081 37.2252 33.1813 37.2432 32.9526L37.2407 32.9538ZM41.2775 33.2577H41.2773C41.2945 33.0285 41.402 32.8157 41.5761 32.6659C41.7502 32.5158 41.9766 32.4414 42.2058 32.4585L43.4975 32.5556C43.7999 32.5764 44.0693 32.7537 44.2083 33.023C44.3471 33.2922 44.335 33.6146 44.1765 33.8728C44.018 34.1311 43.7362 34.2877 43.4332 34.286H43.3649L42.082 34.184C41.8532 34.1671 41.6404 34.06 41.4906 33.8863C41.3408 33.7126 41.2661 33.4864 41.2828 33.2577L41.2775 33.2577ZM33.204 38.4262C33.2209 38.197 33.3284 37.9837 33.5028 37.8339C33.6771 37.6839 33.9037 37.6094 34.1331 37.627L35.4242 37.7241C35.7266 37.745 35.9959 37.9221 36.1347 38.1915C36.2735 38.4608 36.2617 38.7831 36.1032 39.0413C35.9447 39.2996 35.6629 39.4564 35.3599 39.4545H35.2915L34.0004 39.3574C33.771 39.3398 33.5584 39.2317 33.409 39.0569C33.2596 38.8823 33.1858 38.6553 33.204 38.4262ZM37.2409 38.73H37.2407C37.258 38.5009 37.3657 38.288 37.5399 38.138C37.7142 37.9882 37.9408 37.9137 38.17 37.9308L39.4611 38.0279C39.7611 38.0518 40.0273 38.2296 40.1642 38.4977C40.3013 38.7657 40.2894 39.0856 40.1329 39.3428C39.9763 39.6001 39.6976 39.7575 39.3967 39.759H39.3284L38.0373 39.6618H38.0371C37.8088 39.6437 37.597 39.5353 37.448 39.361C37.2993 39.1868 37.2256 38.9606 37.2434 38.7321L37.2409 38.73ZM41.2778 39.0338H41.2775C41.2945 38.8045 41.402 38.5914 41.5763 38.4414C41.7507 38.2916 41.9775 38.2171 42.2066 38.2346L43.4978 38.3318C43.798 38.3557 44.0642 38.5334 44.2011 38.8015C44.338 39.0696 44.3261 39.3895 44.1698 39.6466C44.0132 39.9037 43.7345 40.0613 43.4334 40.0628H43.3651L42.0739 39.9657C41.8461 39.9466 41.6349 39.8381 41.4866 39.664C41.3385 39.4896 41.2652 39.2638 41.283 39.0357L41.2778 39.0338ZM33.2042 44.2063C33.2211 43.9772 33.3286 43.7639 33.503 43.6141C33.6773 43.4641 33.9039 43.3898 34.1333 43.4071L35.4244 43.5043V43.5045C35.7245 43.5282 35.9906 43.7061 36.1277 43.9742C36.2646 44.2421 36.2528 44.562 36.0962 44.8193C35.9398 45.0764 35.6612 45.234 35.3601 45.2355H35.2917L34.0006 45.1384C33.7713 45.1206 33.5584 45.0125 33.409 44.8377C33.2594 44.6627 33.1858 44.4357 33.2042 44.2063ZM37.2411 44.5108H37.2409C37.258 44.2817 37.3657 44.0686 37.5399 43.9185C37.7142 43.7685 37.9408 43.6938 38.1702 43.711L39.4613 43.8081C39.7613 43.832 40.0275 44.0097 40.1644 44.2778C40.3015 44.5459 40.2897 44.8658 40.1331 45.1229C39.9765 45.3802 39.6978 45.5377 39.397 45.5393H39.3286L38.0375 45.4422L38.0373 45.442C37.8088 45.4238 37.5965 45.3155 37.4478 45.1407C37.299 44.9661 37.2256 44.7395 37.2436 44.5108H37.2411ZM41.278 44.8146H41.2778C41.2945 44.5855 41.402 44.3722 41.5761 44.2224C41.7505 44.0724 41.9771 43.9979 42.2062 44.0155L43.498 44.1126C43.8004 44.1335 44.0697 44.3106 44.2087 44.58C44.3475 44.8493 44.3355 45.1716 44.177 45.4297C44.0185 45.6881 43.7367 45.8447 43.4336 45.843H43.3653L42.0824 45.7473C41.8526 45.73 41.6391 45.6219 41.4891 45.4469C41.3393 45.2719 41.2651 45.0444 41.2833 44.8146H41.278Z" fill="black"/>
</svg>
