<svg width="14" height="14" viewBox="0 0 14 14" fill="none" xmlns="http://www.w3.org/2000/svg">
<path fill-rule="evenodd" clip-rule="evenodd" d="M11.8126 2.08472C12.161 2.08472 12.4945 2.22307 12.7406 2.46917C12.9867 2.71581 13.1251 3.0494 13.1251 3.39722V10.6023C13.1251 10.9507 12.9867 11.2848 12.7406 11.5304C12.4945 11.7765 12.161 11.9148 11.8126 11.9148H2.21338C1.86557 11.9148 1.53143 11.7765 1.28533 11.5304C1.03923 11.2848 0.900879 10.9507 0.900879 10.6023V3.39722C0.900879 3.04941 1.03923 2.71581 1.28533 2.46917C1.53143 2.22307 1.86556 2.08472 2.21338 2.08472H11.8126ZM11.8126 2.96027H2.21338C2.09744 2.96027 1.98588 3.0062 1.90385 3.08824C1.82182 3.17027 1.77588 3.28129 1.77588 3.39722V10.6023C1.77588 10.7183 1.82182 10.8298 1.90385 10.9124C1.98588 10.9944 2.09745 11.0404 2.21338 11.0404H11.8126C11.9285 11.0404 12.0395 10.9944 12.1216 10.9124C12.2036 10.8298 12.2501 10.7182 12.2501 10.6023V3.39722C12.2501 3.28128 12.2036 3.17027 12.1216 3.08824C12.0395 3.00621 11.9285 2.96027 11.8126 2.96027ZM9.56606 4.55825C9.74872 4.41223 10.0167 4.44231 10.1627 4.62551C10.3087 4.80817 10.2786 5.07614 10.096 5.22216L8.32417 6.63744L8.32362 6.63799C7.59518 7.21768 6.39979 7.21768 5.67132 6.63799L5.67023 6.6369L3.9039 5.22161C3.72124 5.07506 3.6917 4.80763 3.83827 4.62497C3.98483 4.44177 4.25225 4.41224 4.43492 4.55879L6.2002 5.9735C6.63825 6.32185 7.3563 6.32185 7.79492 5.9735L9.56606 4.55825Z" fill="#A6A6A6"/>
</svg>
