<svg width="160" height="138" viewBox="0 0 160 138" fill="none" xmlns="http://www.w3.org/2000/svg">
<path d="M91.5755 1.86611C65.3967 5.22054 49.5305 10.0817 28.4195 25.9153C18.9521 33.016 12.2974 36.5795 6.61559 46.9583C1.00412 57.2086 -1.16691 64.7181 0.600731 76.2683C1.85419 84.4587 8.87116 95.8083 8.87116 95.8083L20.9009 114.597C20.9009 114.597 34.4342 130.379 44.2083 133.385C53.9825 136.391 58.4936 137.143 69.7715 137.143C81.0494 137.143 99.9714 128.354 116.387 116.1C131.2 105.041 139.595 97.6038 148.717 81.529C152.673 74.5565 154.765 70.443 156.987 62.7406C159.208 55.0434 159.995 42.4491 159.995 42.4491C159.995 42.4491 160.266 32.0739 156.987 25.9153C153.123 18.656 141.198 8.62994 141.198 8.62994C141.198 8.62994 129.194 2.73989 120.898 1.11457C109.657 -1.08768 102.937 0.410248 91.5755 1.86611Z" fill="#F7F7F7"/>
<path fill-rule="evenodd" clip-rule="evenodd" d="M58.1864 31.1862C60.093 27.515 63.6061 25.6218 67.1696 25.5065L66.7644 25.3213H83.3531C86.1045 25.3213 88.6361 26.8329 89.9536 29.2624L122.265 88.845H122.402L124.031 91.917C126.612 96.7854 125.59 102.794 121.545 106.522C120.16 107.799 118.349 108.507 116.469 108.507H35.4045C27.4979 108.507 22.4139 100.067 26.0747 93.0178L58.1864 31.1862ZM106.994 96.367C107.143 98.5496 106.626 100.734 105.527 102.611C104.182 104.329 102.098 105.482 99.6279 105.482H35.4045C29.7569 105.482 26.1255 99.4533 28.7403 94.4184L60.8521 32.5868C63.6641 27.1722 71.3683 27.1722 74.1804 32.5868L106.292 94.4184C106.624 95.0567 106.855 95.711 106.994 96.367ZM106.931 88.845H118.839L87.3134 30.7109C86.5229 29.2532 85.0039 28.3462 83.3531 28.3462H75.514L106.931 88.845ZM108.02 104.312C107.777 104.714 107.513 105.105 107.229 105.482H116.469C117.596 105.482 118.682 105.057 119.513 104.291C122.546 101.496 123.313 96.991 121.377 93.3405L120.597 91.8699H108.996C109.539 93.1896 109.862 94.5594 109.978 95.9323C110.563 98.9522 109.767 101.983 108.02 104.312Z" fill="#464646"/>
<path d="M60.2685 53.2963C60.1209 49.5852 63.0722 46.4956 66.7648 46.4956Lnan nanL66.7648 46.4956C70.4573 46.4956 73.4086 49.5852 73.261 53.2963L72.2381 79.0179C72.1206 81.9728 69.7049 84.3073 66.7648 84.3073Lnan nanL66.7648 84.3073C63.8247 84.3073 61.4089 81.9727 61.2914 79.0179L60.2685 53.2963Z" fill="#FED297"/>
<path fill-rule="evenodd" clip-rule="evenodd" d="M69.9843 78.9272L71.0072 53.2056C71.1036 50.782 69.1763 48.7643 66.7648 48.7643C64.3532 48.7643 62.4259 50.782 62.5223 53.2056L63.5452 78.9272C63.6143 80.6654 65.0353 82.0386 66.7648 82.0386C68.4942 82.0386 69.9152 80.6654 69.9843 78.9272ZM66.7648 46.4956C63.0722 46.4956 60.1209 49.5852 60.2685 53.2963L61.2914 79.0179C61.4089 81.9727 63.8247 84.3073 66.7648 84.3073C69.7049 84.3073 72.1206 81.9728 72.2381 79.0179L73.261 53.2963C73.4086 49.5852 70.4573 46.4956 66.7648 46.4956Z" fill="#464646"/>
<path d="M72.027 92.6259C72.027 95.5495 69.6707 97.9196 66.764 97.9196C63.8573 97.9196 61.501 95.5495 61.501 92.6259C61.501 89.7023 63.8573 87.3323 66.764 87.3323C69.6707 87.3323 72.027 89.7023 72.027 92.6259Z" fill="#FED297"/>
<path fill-rule="evenodd" clip-rule="evenodd" d="M66.764 95.6509C68.4249 95.6509 69.7714 94.2965 69.7714 92.6259C69.7714 90.9553 68.4249 89.601 66.764 89.601C65.103 89.601 63.7565 90.9553 63.7565 92.6259C63.7565 94.2965 65.103 95.6509 66.764 95.6509ZM66.764 97.9196C69.6707 97.9196 72.027 95.5495 72.027 92.6259C72.027 89.7023 69.6707 87.3323 66.764 87.3323C63.8573 87.3323 61.501 89.7023 61.501 92.6259C61.501 95.5495 63.8573 97.9196 66.764 97.9196Z" fill="#464646"/>
<path fill-rule="evenodd" clip-rule="evenodd" d="M75.0349 1.23511C75.8031 1.23511 76.4258 1.86148 76.4258 2.63414V16.2464C76.4258 17.019 75.8031 17.6454 75.0349 17.6454C74.2667 17.6454 73.644 17.019 73.644 16.2464V2.63414C73.644 1.86148 74.2667 1.23511 75.0349 1.23511ZM54.7151 8.27618C55.3542 7.84758 56.2178 8.02131 56.6439 8.6642L61.1551 15.4703C61.5812 16.1132 61.4085 16.9818 60.7693 17.4104C60.1301 17.839 59.2665 17.6653 58.8404 17.0224L54.3293 10.2163C53.9032 9.5734 54.0759 8.70478 54.7151 8.27618ZM94.6029 8.27618C95.2421 8.70478 95.4148 9.5734 94.9887 10.2163L90.4775 17.0224C90.0514 17.6653 89.1878 17.839 88.5487 17.4104C87.9095 16.9818 87.7368 16.1132 88.1629 15.4703L92.674 8.6642C93.1001 8.02131 93.9637 7.84758 94.6029 8.27618ZM117.252 40.5593V38.1771H120.034V40.5593H122.402V43.3573H120.034V46.4957H117.252V43.3573H114.132V40.5593H117.252ZM18.6456 56.9696C17.3376 56.9696 16.2772 58.0361 16.2772 59.3517C16.2772 60.6673 17.3376 61.7338 18.6456 61.7338C19.9536 61.7338 21.0139 60.6673 21.0139 59.3517C21.0139 58.0361 19.9536 56.9696 18.6456 56.9696ZM13.4954 59.3517C13.4954 56.4907 15.8012 54.1715 18.6456 54.1715C21.49 54.1715 23.7958 56.4907 23.7958 59.3517C23.7958 62.2126 21.49 64.5319 18.6456 64.5319C15.8012 64.5319 13.4954 62.2126 13.4954 59.3517ZM137.439 70.5818C136.131 70.5818 135.071 71.6483 135.071 72.9639C135.071 74.2795 136.131 75.346 137.439 75.346C138.747 75.346 139.807 74.2795 139.807 72.9639C139.807 71.6483 138.747 70.5818 137.439 70.5818ZM132.289 72.9639C132.289 70.103 134.595 67.7837 137.439 67.7837C140.283 67.7837 142.589 70.103 142.589 72.9639C142.589 75.8249 140.283 78.1441 137.439 78.1441C134.595 78.1441 132.289 75.8249 132.289 72.9639ZM56.1875 120.911C56.851 121.3 57.0751 122.157 56.6881 122.824C53.7404 127.907 46.5174 128.124 43.2724 123.229L43.0514 122.895C42.6253 122.252 42.798 121.384 43.4372 120.955C44.0764 120.526 44.94 120.7 45.3661 121.343L45.587 121.676C47.6909 124.851 52.374 124.71 54.2851 121.414C54.6722 120.747 55.5239 120.521 56.1875 120.911Z" fill="#E8526E"/>
</svg>
