<svg width="19" height="19" viewBox="0 0 19 19" fill="none" xmlns="http://www.w3.org/2000/svg">
<path fill-rule="evenodd" clip-rule="evenodd" d="M17.8889 9.33441C17.8889 8.68723 17.8308 8.06493 17.7229 7.46753H9.12695V10.998H14.0389C13.8273 12.1389 13.1843 13.1055 12.2177 13.7527V16.0427H15.1674C16.8932 14.4538 17.8889 12.114 17.8889 9.33441Z" fill="#4285F4"/>
<path fill-rule="evenodd" clip-rule="evenodd" d="M9.12691 18.2539C11.5912 18.2539 13.6572 17.4367 15.1673 16.0427L12.2176 13.7527C11.4004 14.3003 10.3549 14.6239 9.12691 14.6239C6.74974 14.6239 4.73766 13.0184 4.01995 10.8611H0.970703V13.2258C2.47251 16.2087 5.55909 18.2539 9.12691 18.2539Z" fill="#34A853"/>
<path fill-rule="evenodd" clip-rule="evenodd" d="M4.02002 10.861C3.83748 10.3134 3.73377 9.72847 3.73377 9.12692C3.73377 8.52537 3.83748 7.94041 4.02002 7.3928V5.02808H0.970779C0.352633 6.26022 0 7.65416 0 9.12692C0 10.5997 0.352633 11.9936 0.970779 13.2258L4.02002 10.861Z" fill="#FBBC05"/>
<path fill-rule="evenodd" clip-rule="evenodd" d="M9.12666 3.62981C10.4667 3.62981 11.6698 4.0903 12.6157 4.99471L15.2334 2.37692C13.6528 0.904157 11.5868 -0.000244141 9.12666 -0.000244141C5.55884 -0.000244141 2.47226 2.04503 0.970459 5.02789L4.0197 7.39261C4.73741 5.23533 6.7495 3.62981 9.12666 3.62981Z" fill="#EA4335"/>
</svg>
