<svg width="49" height="48" viewBox="0 0 49 48" fill="none" xmlns="http://www.w3.org/2000/svg">
<rect x="1" y="0.5" width="47" height="47" rx="7.5" fill="#F8F8F8"/>
<rect x="1" y="0.5" width="47" height="47" rx="7.5" stroke="#322C3C"/>
<g clip-path="url(#clip0_8874_20910)">
<path d="M30.6399 32.6198C29.7599 32.8798 28.7199 32.9998 27.4999 32.9998H21.4999C20.2799 32.9998 19.2399 32.8798 18.3599 32.6198C18.5799 30.0198 21.2499 27.9697 24.4999 27.9697C27.7499 27.9697 30.4199 30.0198 30.6399 32.6198Z" stroke="#322C3C" stroke-width="1.5" stroke-linecap="round" stroke-linejoin="round"/>
<path d="M27.5 13H21.5C16.5 13 14.5 15 14.5 20V26C14.5 29.78 15.64 31.85 18.36 32.62C18.58 30.02 21.25 27.97 24.5 27.97C27.75 27.97 30.42 30.02 30.64 32.62C33.36 31.85 34.5 29.78 34.5 26V20C34.5 15 32.5 13 27.5 13ZM24.5 25.17C22.52 25.17 20.92 23.56 20.92 21.58C20.92 19.6 22.52 18 24.5 18C26.48 18 28.08 19.6 28.08 21.58C28.08 23.56 26.48 25.17 24.5 25.17Z" stroke="#322C3C" stroke-width="1.5" stroke-linecap="round" stroke-linejoin="round"/>
<path d="M28.0799 21.58C28.0799 23.56 26.4799 25.17 24.4999 25.17C22.5199 25.17 20.9199 23.56 20.9199 21.58C20.9199 19.6 22.5199 18 24.4999 18C26.4799 18 28.0799 19.6 28.0799 21.58Z" stroke="#322C3C" stroke-width="1.5" stroke-linecap="round" stroke-linejoin="round"/>
</g>
<defs>
<clipPath id="clip0_8874_20910">
<rect width="24" height="24" fill="white" transform="translate(12.5 12)"/>
</clipPath>
</defs>
</svg>
