<svg width="80" height="32" viewBox="0 0 80 32" fill="none" xmlns="http://www.w3.org/2000/svg">
<path d="M24.2155 20.2374C22.7126 23.7404 18.5693 25.8223 14.0984 25.6252C7.14272 25.3195 1.98701 21.4362 0.074096 16.2898C-0.626966 23.5423 3.68523 29.8303 11.3786 31.5481C19.7059 33.4057 27.7086 29.2932 30 23.6509L24.2155 20.2374Z" fill="#2AB460"/>
<path d="M0.712199 13.3128C1.76735 5.49206 6.85286 0.469319 14.8057 0.0267875C19.5798 -0.238732 24.4608 1.45194 27.1521 5.88933C29.5239 9.79668 29.9391 17.5782 19.7457 19.645C9.13716 21.7953 2.40431 16.7656 0.711182 13.3118M20.6675 8.88446C19.6409 7.3346 17.6659 6.51793 14.94 6.66979C10.5271 6.9152 7.93853 9.80574 7.33515 12.5092C8.61518 13.8901 14.5116 15.1956 18.8106 13.7423C21.0166 12.996 21.8794 10.7089 20.6675 8.88446Z" fill="#342E3F"/>
<path d="M39.3296 20.0762C37.8296 20.0762 36.9689 20.8782 36.5741 21.3863V16.6571H35V28.7953H36.526V27.7044C37.2104 28.5642 38.1192 28.9995 39.2334 28.9995C40.4137 28.9995 41.4828 28.5542 42.2433 27.7453C43.0018 26.9383 43.4197 25.8046 43.4197 24.5533C43.4197 21.9173 41.7373 20.0752 39.3286 20.0752L39.3296 20.0762ZM39.1863 21.5307C39.9227 21.5307 40.5901 21.8296 41.066 22.3715C41.549 22.9225 41.8145 23.7035 41.8145 24.5693C41.8145 25.435 41.5469 26.2031 41.0409 26.752C40.56 27.274 39.8897 27.561 39.1552 27.561C37.6322 27.561 36.527 26.3027 36.527 24.5693C36.527 22.8358 37.5961 21.5307 39.1873 21.5307H39.1863Z" fill="#342E3F"/>
<path d="M58.5605 20.0762C57.9342 20.0762 57.3491 20.2306 56.8661 20.5235C56.5625 20.7068 56.302 20.9459 56.1066 21.2149V20.2814H54.5325V28.7954H56.1066V23.7503C56.1066 22.503 57.0324 21.5626 58.2599 21.5626C59.3971 21.5626 60.2228 22.4034 60.2228 23.5611V28.7954H61.7969V23.4824C61.7969 21.4769 60.4663 20.0762 58.5615 20.0762H58.5605Z" fill="#342E3F"/>
<path d="M67.3049 24.1149L70.1726 20.2803H68.3279L65.9983 23.4474H64.799V16.656H63.2249V28.7942H64.799V24.9019H66.0384L68.4792 28.7942H70.3539L67.3049 24.1149Z" fill="#342E3F"/>
<path d="M52.8343 20.2804H51.2442V21.3763C50.8714 20.8891 50.0207 20.0752 48.5047 20.0752C46.0959 20.0752 44.4136 21.9163 44.4136 24.5533C44.4136 25.8066 44.8294 26.9404 45.5839 27.7453C46.3424 28.5543 47.4135 28.9996 48.5999 28.9996C49.7031 28.9996 50.6089 28.5772 51.2482 27.7752V28.9996H52.8313V28.1209C52.8333 27.6786 52.8343 27.1765 52.8343 27.1536V20.2804ZM50.5828 26.6863C50.1029 27.2582 49.4386 27.561 48.664 27.561C47.1069 27.561 46.0198 26.3307 46.0198 24.5693C46.0198 23.7035 46.2853 22.9235 46.7683 22.3716C47.2432 21.8286 47.9105 21.5307 48.648 21.5307C49.3855 21.5307 50.0358 21.8097 50.5087 22.3168C51.0207 22.8657 51.2923 23.6448 51.2923 24.5693C51.2923 25.3902 51.0408 26.1414 50.5828 26.6863Z" fill="#342E3F"/>
<path d="M41.8465 3V7.72916C41.4528 7.22207 40.5911 6.4191 39.0911 6.4191C36.6823 6.4191 35 8.26015 35 10.8972C35 12.1485 35.4178 13.2822 36.1763 14.0892C36.9368 14.8981 38.0059 15.3434 39.1863 15.3434C40.3005 15.3434 41.2093 14.9081 41.8936 14.0473V15.1382H43.4197V3H41.8455H41.8465ZM39.2654 13.9039C37.6993 13.9039 36.6052 12.6735 36.6052 10.9121C36.6052 10.0464 36.8707 9.26635 37.3537 8.71444C37.8286 8.17149 38.4959 7.87361 39.2334 7.87361C40.8245 7.87361 41.8936 9.095 41.8936 10.9121C41.8936 12.8757 40.571 13.9039 39.2654 13.9039Z" fill="#342E3F"/>
<path d="M55.6187 6.62442V7.7153C54.9344 6.85554 54.0256 6.41919 52.9114 6.41919C51.731 6.41919 50.6619 6.86451 49.9014 7.67346C49.1429 8.48041 48.7251 9.61414 48.7251 10.8654C48.7251 13.5015 50.4074 15.3425 52.8162 15.3425C54.3633 15.3425 55.1929 14.5655 55.5716 14.0554V16.1445C55.5716 16.9594 55.26 17.2922 54.4965 17.2922H50.7541V18.7626H54.4805C55.3041 18.7626 55.9514 18.5664 56.4023 18.1778C56.8953 17.7544 57.1457 17.1118 57.1457 16.27V6.62442H55.6197H55.6187ZM52.9585 13.889C51.4114 13.889 50.3303 12.6457 50.3303 10.8664C50.3303 9.08712 51.4244 7.8747 52.9905 7.8747C54.5566 7.8747 55.6187 9.13295 55.6187 10.8664C55.6187 11.7849 55.3472 12.559 54.8342 13.105C54.3582 13.6111 53.6929 13.889 52.9585 13.889Z" fill="#342E3F"/>
<path d="M64.1137 3.09839H62.1338V4.45528H64.1137V3.09839Z" fill="#342E3F"/>
<path d="M67.9532 7.99983V6.62402H65.4172V4.245H63.9223V6.62402H62.29V7.99983H63.8431V12.6463C63.8431 13.4881 64.0936 14.1297 64.5866 14.5541C65.0375 14.9416 65.6848 15.1389 66.5084 15.1389H67.842V13.7312H66.4924C65.7088 13.7312 65.4172 13.4333 65.4172 12.6304V7.99983H67.9532Z" fill="#342E3F"/>
<path d="M58.0776 6.58435V7.96017H59.6438V15.1382H61.2179V7.96017V7.89542V7.79978V6.74375V6.58435H58.0776Z" fill="#342E3F"/>
<path d="M44.3584 6.58435V7.96017H45.9245V15.1382H47.4986V7.96017V7.89542V7.79978V6.74375V6.58435H44.3584Z" fill="#342E3F"/>
<path d="M76.7647 6.62442H75.1746V7.7203C74.8018 7.23313 73.9511 6.41919 72.4351 6.41919C70.0263 6.41919 68.344 8.26026 68.344 10.8973C68.344 12.1506 68.7598 13.2844 69.5143 14.0893C70.2728 14.8983 71.344 15.3436 72.5303 15.3436C73.6335 15.3436 74.5393 14.9212 75.1786 14.1192V15.3436H76.7617V14.4649C76.7637 14.0226 76.7647 13.5205 76.7647 13.4976V6.62442ZM74.5133 13.0303C74.0333 13.6022 73.369 13.905 72.5944 13.905C71.0373 13.905 69.9502 12.6747 69.9502 10.9133C69.9502 10.0475 70.2157 9.26747 70.6987 8.71555C71.1736 8.17259 71.8409 7.87471 72.5784 7.87471C73.3159 7.87471 73.9662 8.15366 74.4391 8.66075C74.9511 9.20969 75.2227 9.98876 75.2227 10.9133C75.2227 11.7342 74.9712 12.4854 74.5133 13.0303Z" fill="#342E3F"/>
<path d="M78.426 15.3661H80.0001V4.39749H79.9971V4.24307V3.17211V3.01172H76.7617V4.40347H78.426V15.3661Z" fill="#342E3F"/>
</svg>
