<svg width="14" height="14" viewBox="0 0 14 14" fill="none" xmlns="http://www.w3.org/2000/svg">
<path fill-rule="evenodd" clip-rule="evenodd" d="M10.5 6.56255H10.8828C11.6079 6.56255 12.1953 7.15044 12.1953 7.87505V11.8125C12.1953 12.5372 11.6079 13.125 10.8828 13.125H3.06308C2.33738 13.125 1.75 12.5372 1.75 11.8125V7.87505C1.75 7.15044 2.33735 6.56255 3.06308 6.56255H3.50058V4.37505C3.50058 3.447 3.86863 2.55668 4.52543 1.89985C5.18168 1.2436 6.07196 0.875 7.00005 0.875H7.00114C7.92919 0.875 8.81892 1.2436 9.47576 1.89985C10.1315 2.5561 10.5001 3.44591 10.5001 4.37446L10.5 6.56255ZM10.8828 7.43755H3.06308C2.82081 7.43755 2.62504 7.63333 2.62504 7.87505V11.8125C2.62504 12.0543 2.82081 12.25 3.06308 12.25H10.8828C11.1245 12.25 11.3203 12.0543 11.3203 11.8125V7.87505C11.3203 7.63333 11.1245 7.43755 10.8828 7.43755ZM9.62547 6.56255V4.37446C9.62547 3.67829 9.34875 3.01051 8.85656 2.51888C8.36437 2.02615 7.69664 1.74998 7.00098 1.74998H6.99989C6.30371 1.74998 5.63594 2.02615 5.14372 2.51888C4.65153 3.01107 4.37482 3.6788 4.37482 4.37505V6.56255H9.62547ZM6.99988 8.33226C7.83988 8.33226 8.52122 9.01367 8.52122 9.8536C8.52122 10.693 7.83981 11.3749 6.99988 11.3749C6.16043 11.3749 5.47855 10.693 5.47855 9.8536C5.47855 9.0136 6.1605 8.33226 6.99988 8.33226ZM6.99988 9.20726C6.64278 9.20726 6.35403 9.49656 6.35403 9.85367C6.35403 10.2108 6.64278 10.5001 6.99988 10.5001C7.35644 10.5001 7.64629 10.2108 7.64629 9.85367C7.64629 9.49656 7.35644 9.20726 6.99988 9.20726Z" fill="#A6A6A6"/>
</svg>
