<svg width="21" height="20" viewBox="0 0 21 20" fill="none" xmlns="http://www.w3.org/2000/svg">
<path d="M2.83398 5.00195H4.50065H17.834" stroke="#322C3C" stroke-width="1.25" stroke-linecap="round" stroke-linejoin="round"/>
<path d="M7 4.9974V3.33073C7 2.8887 7.1756 2.46478 7.48816 2.15222C7.80072 1.83966 8.22464 1.66406 8.66667 1.66406H12C12.442 1.66406 12.866 1.83966 13.1785 2.15222C13.4911 2.46478 13.6667 2.8887 13.6667 3.33073V4.9974M16.1667 4.9974V16.6641C16.1667 17.1061 15.9911 17.53 15.6785 17.8426C15.366 18.1551 14.942 18.3307 14.5 18.3307H6.16667C5.72464 18.3307 5.30072 18.1551 4.98816 17.8426C4.67559 17.53 4.5 17.1061 4.5 16.6641V4.9974H16.1667Z" stroke="#322C3C" stroke-width="1.25" stroke-linecap="round" stroke-linejoin="round"/>
<path d="M8.66797 9.16211V14.1621" stroke="#322C3C" stroke-width="1.5" stroke-linecap="round" stroke-linejoin="round"/>
<path d="M12 9.16211V14.1621" stroke="#322C3C" stroke-width="1.25" stroke-linecap="round" stroke-linejoin="round"/>
</svg>
