<svg width="89" height="39" viewBox="0 0 89 39" fill="none" xmlns="http://www.w3.org/2000/svg">
<g clip-path="url(#clip0_13_795)">
<path d="M3.22266 11.6677H10.797H15.4061V7.12305L3.22266 11.6677Z" fill="#FF9D28"/>
<path d="M15.375 7.12337V23.2068L21.1122 4.96387L15.375 7.12337Z" fill="#68C5ED"/>
<path d="M15.3747 11.668H10.7656L15.3747 23.2068V11.668Z" fill="#044D80"/>
<path d="M3.22266 11.668L11.9574 14.6333L10.7648 11.668H3.22266Z" fill="#E54747"/>
<path d="M31.0706 18.9518C31.0061 19.0163 30.8772 19.113 30.7483 19.2097C30.5871 19.3064 30.3937 19.4031 30.1359 19.4997C29.878 19.5964 29.5879 19.6931 29.2334 19.7576C28.8788 19.8221 28.4598 19.8543 28.0086 19.8543C27.1061 19.8543 26.3326 19.7254 25.6879 19.4353C25.0433 19.1452 24.4954 18.7584 24.0764 18.2427C23.6573 17.727 23.335 17.1146 23.1416 16.4055C22.9483 15.6964 22.8516 14.9229 22.8516 14.0849C22.8516 13.2469 22.9483 12.4733 23.1739 11.732C23.3995 11.0229 23.7218 10.4105 24.1408 9.86256C24.5598 9.34685 25.1078 8.92785 25.7524 8.63776C26.397 8.34768 27.1706 8.18652 28.0408 8.18652C28.4598 8.18652 28.8788 8.21875 29.2011 8.31545C29.5557 8.37991 29.8458 8.47661 30.1036 8.60553C30.3615 8.70223 30.5871 8.83115 30.7483 8.92785C30.9094 9.05677 31.0383 9.15347 31.135 9.21793C31.2317 9.31462 31.3284 9.41132 31.3929 9.54024C31.4573 9.66917 31.4896 9.79809 31.4896 9.92702C31.4896 10.1526 31.3929 10.3783 31.2317 10.6039C31.0706 10.8295 30.8772 11.0229 30.6838 11.2163C30.5549 11.0873 30.3937 10.9584 30.2326 10.7973C30.0714 10.6683 29.878 10.5394 29.6846 10.4427C29.4912 10.346 29.2334 10.2493 28.9755 10.1849C28.7177 10.1204 28.4276 10.0882 28.1053 10.0882C27.5251 10.0882 27.0739 10.2171 26.6871 10.4427C26.3003 10.6683 26.0102 10.9584 25.7524 11.3452C25.5268 11.6997 25.3656 12.1188 25.2689 12.6022C25.1722 13.0857 25.1078 13.5692 25.1078 14.0526C25.1078 14.5683 25.1722 15.084 25.2689 15.5353C25.3656 16.0188 25.5268 16.4378 25.7846 16.7923C26.0425 17.1469 26.3326 17.4369 26.7516 17.6626C27.1383 17.8882 27.6218 17.9849 28.2342 17.9849C28.5565 17.9849 28.8466 17.9526 29.1045 17.8559C29.3623 17.7915 29.5879 17.6948 29.7813 17.5659C29.9747 17.4692 30.1681 17.3402 30.297 17.2113C30.4582 17.0824 30.5871 16.9857 30.6838 16.889C30.7483 16.9535 30.8127 17.0502 30.9094 17.1791C31.0061 17.2758 31.0706 17.4047 31.1673 17.5336C31.2317 17.6626 31.2962 17.7915 31.3607 17.8882C31.4251 18.0171 31.4573 18.1138 31.4573 18.2105C31.4573 18.3394 31.4251 18.4683 31.3607 18.565C31.264 18.7262 31.1995 18.8229 31.0706 18.9518ZM39.6441 17.6948C39.6441 18.565 39.773 19.2097 40.0309 19.6287C39.8375 19.6931 39.6441 19.7576 39.483 19.7898C39.3218 19.8221 39.1284 19.8543 38.935 19.8543C38.5483 19.8543 38.2259 19.7898 38.0326 19.6287C37.8392 19.4675 37.7102 19.2419 37.6458 18.9518C37.3879 19.2097 37.0656 19.4353 36.6788 19.5964C36.2921 19.7898 35.7764 19.8543 35.1962 19.8543C34.9061 19.8543 34.5838 19.8221 34.2937 19.7254C34.0036 19.6287 33.7135 19.4997 33.4879 19.3064C33.2301 19.113 33.0367 18.8551 32.8755 18.5328C32.7144 18.2105 32.6499 17.8237 32.6499 17.3725C32.6499 16.7923 32.7788 16.3411 33.0689 15.9865C33.3268 15.632 33.6813 15.3419 34.1003 15.1485C34.5193 14.9551 34.9706 14.794 35.454 14.7295C35.9375 14.665 36.3888 14.6006 36.7755 14.5683C36.9045 14.5683 37.0334 14.5361 37.1623 14.5361H37.5169V14.246C37.5169 13.827 37.3879 13.5047 37.1623 13.3435C36.9367 13.1502 36.5499 13.0857 36.0342 13.0857C35.5507 13.0857 35.1317 13.1502 34.745 13.3113C34.3582 13.4725 34.0036 13.6336 33.6491 13.8593C33.4879 13.6659 33.359 13.4725 33.2623 13.2469C33.1656 13.0212 33.1334 12.8601 33.1334 12.7312C33.1334 12.57 33.2301 12.4088 33.3912 12.2799C33.5524 12.151 33.8102 11.9898 34.1003 11.8931C34.3904 11.7642 34.745 11.6675 35.1317 11.6031C35.5185 11.5386 35.9375 11.5064 36.3565 11.5064C36.9689 11.5064 37.4846 11.5708 37.9036 11.6997C38.3226 11.8287 38.6772 12.0221 38.935 12.2799C39.1929 12.5378 39.3863 12.8601 39.483 13.2469C39.5797 13.6336 39.6441 14.0849 39.6441 14.6006V17.6948ZM37.4846 15.7287H37.259C37.1945 15.7287 37.0978 15.7287 37.0334 15.7609C36.7433 15.7931 36.4854 15.8254 36.1954 15.8576C35.9375 15.8898 35.6797 15.9865 35.454 16.0832C35.2284 16.1799 35.0673 16.3411 34.9383 16.5345C34.8094 16.7278 34.745 16.9535 34.745 17.2113C34.745 17.5336 34.8416 17.7915 35.0028 18.0171C35.1962 18.2427 35.4863 18.3394 35.9053 18.3394C36.1309 18.3394 36.3243 18.3072 36.5177 18.2427C36.7111 18.1783 36.8722 18.1138 37.0334 18.0171C37.1623 17.9204 37.2912 17.8237 37.3879 17.727C37.4846 17.6303 37.5169 17.5336 37.5169 17.4369L37.4846 15.7287ZM43.802 12.4411C43.9954 12.2154 44.2532 12.0221 44.64 11.7964C45.0268 11.5708 45.5102 11.4741 46.0904 11.4741C46.5094 11.4741 46.8962 11.5386 47.283 11.6675C47.6697 11.7964 47.9921 12.0221 48.2821 12.3444C48.5722 12.6667 48.7978 13.0857 48.9912 13.5692C49.1524 14.0849 49.2491 14.7295 49.2491 15.4708C49.2491 16.3411 49.1524 17.0502 48.959 17.6303C48.7656 18.2105 48.5078 18.6295 48.1854 18.984C47.8631 19.3064 47.5086 19.532 47.1218 19.6931C46.735 19.8221 46.3483 19.8865 45.9615 19.8865C45.6392 19.8865 45.3491 19.8543 45.1235 19.7898C44.8978 19.7254 44.6722 19.6287 44.5111 19.532C44.3499 19.4353 44.221 19.3386 44.1243 19.2741C44.0276 19.1774 43.9954 19.113 43.9631 19.0807V23.2064H41.6747V11.6997C41.7392 11.6997 41.8036 11.6675 41.8681 11.6675C41.9326 11.6675 42.0293 11.6353 42.0937 11.6353H42.416C42.8028 11.6353 43.0929 11.6997 43.3507 11.8287C43.5764 11.9576 43.7375 12.151 43.802 12.4411ZM46.8317 15.5353C46.8317 15.213 46.7995 14.8907 46.735 14.6006C46.6706 14.3105 46.5739 14.0526 46.445 13.8593C46.316 13.6336 46.1549 13.4725 45.9292 13.3758C45.7036 13.2469 45.4458 13.2146 45.1235 13.2146C44.6722 13.2146 44.3177 13.3113 44.1565 13.4725C43.9631 13.6659 43.8664 13.8593 43.8664 14.0526V17.5981C43.9631 17.6948 44.1243 17.7915 44.3499 17.9204C44.5755 18.0493 44.8334 18.1138 45.1557 18.1138C45.7359 18.1138 46.1226 17.8882 46.4127 17.4369C46.7028 16.9535 46.8317 16.3411 46.8317 15.5353ZM50.9573 18.4361C50.8929 18.2105 50.8284 17.9849 50.7962 17.727C50.764 17.4692 50.764 17.2435 50.764 16.9857V9.21793C50.8284 9.21793 50.9251 9.1857 51.0218 9.1857C51.0863 9.1857 51.183 9.15347 51.2797 9.15347H51.5375C51.7309 9.15347 51.8921 9.1857 52.0854 9.21793C52.2788 9.25016 52.44 9.31462 52.5689 9.41132C52.6978 9.50801 52.8268 9.63694 52.9235 9.83033C53.0202 9.99148 53.0524 10.2171 53.0524 10.5072V11.6997H55.4053V13.3758H53.0524V16.9535C53.0524 17.727 53.3747 18.1138 54.0193 18.1138C54.1805 18.1138 54.3094 18.0816 54.4706 18.0493C54.5995 17.9849 54.7284 17.9526 54.8573 17.8882C54.954 17.8237 55.0507 17.7593 55.1474 17.6948C55.2441 17.6303 55.2764 17.5659 55.3086 17.5336C55.4697 17.7915 55.5987 17.9849 55.6954 18.1783C55.7921 18.3716 55.8243 18.5328 55.8243 18.694C55.8243 18.8551 55.7598 18.984 55.6631 19.113C55.5342 19.2419 55.3731 19.3708 55.1797 19.4997C54.954 19.6287 54.6962 19.7254 54.4061 19.7898C54.116 19.8543 53.7615 19.8865 53.4069 19.8865C52.7301 19.8865 52.1821 19.7576 51.7954 19.4997C51.4086 19.2097 51.1185 18.8551 50.9573 18.4361ZM61.1747 18.2105C61.4648 18.2105 61.6904 18.1783 61.916 18.1138C62.1416 18.0493 62.335 17.9849 62.4962 17.8882C62.6573 17.7915 62.8185 17.6948 62.9474 17.5981C63.0764 17.5014 63.173 17.4047 63.2697 17.308C63.3987 17.4692 63.5598 17.6948 63.6888 17.9526C63.8499 18.2105 63.9144 18.4361 63.9144 18.5973C63.9144 18.8551 63.7854 19.0807 63.4954 19.2741C63.2697 19.4675 62.9152 19.5964 62.4962 19.7254C62.0772 19.8543 61.5615 19.9188 60.9813 19.9188C60.4656 19.9188 59.9499 19.8543 59.4342 19.7254C58.9185 19.5964 58.4673 19.3708 58.0805 19.0163C57.6937 18.694 57.3714 18.2427 57.1135 17.6626C56.8557 17.1146 56.759 16.3733 56.759 15.5353C56.759 14.8262 56.8557 14.2138 57.0813 13.7303C57.3069 13.2146 57.597 12.7956 57.9516 12.4733C58.3061 12.151 58.7251 11.8931 59.1764 11.732C59.6276 11.5708 60.1111 11.5064 60.5945 11.5064C61.2069 11.5064 61.7549 11.6031 62.1739 11.7964C62.6251 11.9898 62.9797 12.2477 63.2375 12.57C63.4954 12.8923 63.721 13.2791 63.8177 13.6981C63.9466 14.1171 64.0111 14.5683 64.0111 15.0518V15.2774V15.5675C64.0111 15.6642 64.0111 15.7609 63.9788 15.8576C63.9788 15.9543 63.9788 16.0188 63.9466 16.0832H59.0152C59.0474 16.6956 59.2408 17.2113 59.5954 17.6303C59.9177 17.9849 60.4334 18.2105 61.1747 18.2105ZM61.9483 14.794C61.9483 14.246 61.8516 13.827 61.6259 13.4725C61.4326 13.1502 61.0458 12.9568 60.4978 12.9568C60.0466 12.9568 59.6598 13.1179 59.402 13.4402C59.1119 13.7626 58.983 14.2138 58.983 14.7617L61.9483 14.794ZM67.9755 12.4733C68.04 12.3766 68.1367 12.2477 68.2334 12.151C68.3301 12.0221 68.4912 11.9254 68.6524 11.8287C68.8135 11.732 69.0069 11.6353 69.2003 11.5708C69.3937 11.5064 69.6193 11.4741 69.8127 11.4741C69.9417 11.4741 70.1028 11.4741 70.2317 11.5064C70.3929 11.5386 70.5218 11.5708 70.6507 11.6353C70.7797 11.6997 70.8764 11.7642 70.973 11.8931C71.0375 11.9898 71.102 12.1188 71.102 12.2799C71.102 12.5378 71.0375 12.7956 70.9086 13.1179C70.7797 13.4402 70.6507 13.6981 70.554 13.9237C70.3607 13.7626 70.1673 13.6336 69.9739 13.5692C69.7805 13.4725 69.5549 13.4402 69.297 13.4402C68.9425 13.4402 68.6524 13.5369 68.4268 13.7303C68.2011 13.9237 68.0722 14.1816 68.0722 14.4394V19.8543H65.7838V11.6997C65.8483 11.6997 65.9127 11.6675 65.9772 11.6675C66.0416 11.6675 66.1383 11.6353 66.2028 11.6353H66.5251C66.8797 11.6353 67.202 11.6997 67.4598 11.8287C67.7177 11.9898 67.9111 12.1832 67.9755 12.4733ZM74.454 12.4733C74.5185 12.3766 74.6152 12.2477 74.7119 12.151C74.8086 12.0221 74.9697 11.9254 75.1309 11.8287C75.2921 11.732 75.4854 11.6353 75.6788 11.5708C75.8722 11.5064 76.0978 11.4741 76.2912 11.4741C76.4202 11.4741 76.5813 11.4741 76.7102 11.5064C76.8714 11.5386 77.0003 11.5708 77.1292 11.6353C77.2582 11.6997 77.3549 11.7642 77.4516 11.8931C77.516 11.9898 77.5805 12.1188 77.5805 12.2799C77.5805 12.5378 77.516 12.7956 77.3871 13.1179C77.2582 13.4402 77.1292 13.6981 77.0326 13.9237C76.8392 13.7626 76.6458 13.6336 76.4524 13.5692C76.259 13.4725 76.0334 13.4402 75.7755 13.4402C75.421 13.4402 75.1309 13.5369 74.9053 13.7303C74.6797 13.9237 74.5507 14.1816 74.5507 14.4394V19.8543H72.2623V11.6997C72.3268 11.6997 72.3912 11.6675 72.4557 11.6675C72.5202 11.6675 72.6169 11.6353 72.6813 11.6353H73.0036C73.3582 11.6353 73.6805 11.6997 73.9383 11.8287C74.1962 11.9898 74.3896 12.1832 74.454 12.4733ZM85.316 17.6948C85.316 18.565 85.445 19.2097 85.7028 19.6287C85.5094 19.6931 85.316 19.7576 85.1549 19.7898C84.9937 19.8221 84.8003 19.8543 84.6069 19.8543C84.2202 19.8543 83.8979 19.7898 83.7045 19.6287C83.5111 19.4675 83.3821 19.2419 83.3177 18.9518C83.0598 19.2097 82.7375 19.4353 82.3507 19.5964C81.964 19.7898 81.4483 19.8543 80.8681 19.8543C80.578 19.8543 80.2557 19.8221 79.9656 19.7254C79.6755 19.6287 79.3855 19.4997 79.1598 19.3064C78.902 19.113 78.7086 18.8551 78.5474 18.5328C78.3863 18.2105 78.3218 17.8237 78.3218 17.3725C78.3218 16.7923 78.4507 16.3411 78.7408 15.9865C78.9987 15.632 79.3532 15.3419 79.7722 15.1485C80.1912 14.9551 80.6425 14.794 81.1259 14.7295C81.6094 14.665 82.0607 14.6006 82.4474 14.5683C82.5764 14.5683 82.7053 14.5361 82.8342 14.5361H83.1888V14.246C83.1888 13.827 83.0598 13.5047 82.8342 13.3435C82.6086 13.1502 82.2218 13.0857 81.7061 13.0857C81.2226 13.0857 80.8036 13.1502 80.4169 13.3113C80.0301 13.4725 79.6755 13.6336 79.321 13.8593C79.1598 13.6659 79.0309 13.4725 78.9342 13.2469C78.8375 13.0212 78.8053 12.8601 78.8053 12.7312C78.8053 12.57 78.902 12.4088 79.0631 12.2799C79.2243 12.151 79.4821 11.9898 79.7722 11.8931C80.0623 11.7642 80.4168 11.6675 80.8036 11.6031C81.1904 11.5386 81.6094 11.5064 82.0284 11.5064C82.6408 11.5064 83.1565 11.5708 83.5755 11.6997C83.9945 11.8287 84.3491 12.0221 84.6069 12.2799C84.8648 12.5378 85.0582 12.8601 85.1549 13.2469C85.2516 13.6336 85.316 14.0849 85.316 14.6006V17.6948ZM83.1565 15.7287H82.9309C82.8664 15.7287 82.7697 15.7287 82.7053 15.7609C82.4152 15.7931 82.1573 15.8254 81.8673 15.8576C81.6094 15.8898 81.3516 15.9865 81.1259 16.0832C80.9003 16.1799 80.7392 16.3411 80.6102 16.5345C80.4813 16.7278 80.4169 16.9535 80.4169 17.2113C80.4169 17.5336 80.5135 17.7915 80.6747 18.0171C80.8681 18.2427 81.1582 18.3394 81.5772 18.3394C81.8028 18.3394 81.9962 18.3072 82.1896 18.2427C82.383 18.1783 82.5441 18.1138 82.7053 18.0171C82.8342 17.9204 82.9631 17.8237 83.0598 17.727C83.1565 17.6303 83.1888 17.5336 83.1888 17.4369L83.1565 15.7287Z" fill="#044D80"/>
<path d="M23.7214 29.6855L25.2686 32.812L28.7173 33.3277L26.2355 35.7451L26.8157 39.1616L23.7214 37.55L20.6595 39.1616L21.2396 35.7451L18.7578 33.3277L22.2066 32.812L23.7214 29.6855Z" fill="#FFD200"/>
<path d="M34.0994 29.6855L35.6465 32.812L39.063 33.3277L36.5812 35.7451L37.1614 39.1616L34.0994 37.55L31.0052 39.1616L31.6176 35.7451L29.1035 33.3277L32.5523 32.812L34.0994 29.6855Z" fill="#FFD200"/>
<path d="M44.4461 29.6855L45.9932 32.812L49.4419 33.3277L46.9601 35.7451L47.5403 39.1616L44.4461 37.55L41.3841 39.1616L41.9642 35.7451L39.4824 33.3277L42.9312 32.812L44.4461 29.6855Z" fill="#FFD200"/>
<path d="M54.824 29.6855L56.3711 32.812L59.7876 33.3277L57.3058 35.7451L57.886 39.1616L54.824 37.55L51.7298 39.1616L52.3422 35.7451L49.8281 33.3277L53.2769 32.812L54.824 29.6855Z" fill="#FFD200"/>
<path d="M65.1707 29.6855L66.7178 32.812L70.1665 33.3277L67.6525 35.7451L68.2649 39.1616L65.1707 37.55L62.1087 39.1616L62.6888 35.7451L60.207 33.3277L63.6558 32.812L65.1707 29.6855Z" fill="#FFD200"/>
</g>
<defs>
<clipPath id="clip0_13_795">
<rect width="88.862" height="39" fill="white"/>
</clipPath>
</defs>
</svg>
