<svg width="89" height="39" viewBox="0 0 89 39" fill="none" xmlns="http://www.w3.org/2000/svg">
<g clip-path="url(#clip0_13_735)">
<path d="M23.7224 29.5244L25.2373 32.6509L28.6861 33.1666L26.2042 35.5839L26.7844 39.0004L23.7224 37.3889L20.6282 39.0004L21.2406 35.5839L18.7266 33.1666L22.1753 32.6509L23.7224 29.5244Z" fill="#FFD200"/>
<path d="M34.0691 29.5244L35.6162 32.6509L39.065 33.1666L36.5509 35.5839L37.1633 39.0004L34.0691 37.3889L31.0071 39.0004L31.5873 35.5839L29.1055 33.1666L32.522 32.6509L34.0691 29.5244Z" fill="#FFD200"/>
<path d="M44.447 29.5244L45.9619 32.6509L49.4107 33.1666L46.9289 35.5839L47.509 39.0004L44.447 37.3889L41.3528 39.0004L41.933 35.5839L39.4512 33.1666L42.8999 32.6509L44.447 29.5244Z" fill="#FFD200"/>
<path d="M54.7937 29.5244L56.3408 32.6509L59.7896 33.1666L57.2755 35.5839L57.8879 39.0004L54.7937 37.3889L51.7317 39.0004L52.3119 35.5839L49.8301 33.1666L53.2466 32.6509L54.7937 29.5244Z" fill="#FFD200"/>
<path d="M65.1716 29.5244L66.6865 32.6509L70.1353 33.1666L67.6535 35.5839L68.2336 39.0004L65.1716 37.3889L62.0774 39.0004L62.6576 35.5839L60.1758 33.1666L63.6245 32.6509L65.1716 29.5244Z" fill="#FFD200"/>
<path d="M44.8984 25.527C39.2901 25.527 34.3909 21.9816 32.8116 16.6956C31.4901 12.2799 32.3281 8.21875 35.3256 4.67329C37.1628 2.51379 39.5479 1.16007 42.3198 0.612135C43.867 0.28982 45.4785 0.28982 47.0579 0.579903C47.219 0.612135 47.219 0.644366 47.1546 0.805523C46.381 2.41709 45.6074 4.02866 44.8661 5.608C44.8339 5.7047 44.7372 5.76916 44.6083 5.76916C41.3207 5.86585 38.4843 8.18652 37.7752 11.4097C37.0017 14.8262 38.8711 18.3716 42.1265 19.6287C44.7372 20.6278 47.1223 20.2411 49.3463 18.5328C49.443 18.4361 49.5075 18.4361 49.5719 18.565C50.4099 20.0477 51.2479 21.4981 52.1182 22.9807C52.1827 23.1097 52.1504 23.1741 52.0537 23.2386C50.4099 24.3989 48.476 25.1725 46.4777 25.4303C45.962 25.4948 45.4141 25.527 44.8984 25.527Z" fill="#EF492D"/>
<path d="M53.601 21.8848C53.5365 21.8526 53.5043 21.7559 53.4721 21.7237C52.5051 20.0799 51.5704 18.4038 50.6035 16.76C50.539 16.6311 50.3779 16.5344 50.2489 16.5666C48.3473 16.5666 46.4456 16.5666 44.544 16.5666H44.3184C44.3184 16.5022 44.3506 16.4377 44.3828 16.3733C45.3498 14.6972 46.3167 13.0212 47.2836 11.3452C47.3481 11.2162 47.4448 11.1518 47.5737 11.184H53.4076C53.5365 11.184 53.6655 11.2485 53.6977 11.3452C54.6646 13.0212 55.6316 14.7294 56.6308 16.4055C56.6952 16.5022 56.6952 16.6311 56.6308 16.6956C55.6316 18.4038 54.6646 20.0799 53.6977 21.7881C53.6655 21.8204 53.6655 21.8848 53.601 21.8848Z" fill="#EF492D"/>
<path d="M49.508 4.09304C49.1534 3.7385 48.8311 3.41618 48.5088 3.09387C48.4121 2.99718 48.4766 2.93271 48.5088 2.83602C48.8956 2.15916 49.508 1.67569 50.2493 1.45007C51.1518 1.15999 52.151 1.25668 52.989 1.70792C54.5038 2.51371 54.3749 4.41536 53.5047 5.28561C53.1824 5.60792 52.7956 5.86577 52.3766 6.09139C51.9576 6.31701 51.5386 6.54263 51.1196 6.76825C50.765 6.96164 50.5072 7.25172 50.3782 7.6385C50.3138 7.79966 50.346 7.83189 50.5394 7.83189H53.8914C54.0526 7.83189 54.1171 7.86412 54.1171 8.05751V9.25007C54.1171 9.37899 54.0848 9.41123 53.9559 9.41123C52.151 9.41123 50.3782 9.41123 48.5733 9.41123C48.4766 9.41123 48.4121 9.41123 48.4121 9.2823C48.4121 8.05751 48.6377 6.89718 49.6047 5.9947C50.0559 5.57569 50.5716 5.25337 51.1518 4.99552C51.4741 4.83437 51.7642 4.70544 52.022 4.47982C52.2476 4.28643 52.4088 4.06081 52.441 3.7385C52.4733 3.25503 52.0865 2.90048 51.5063 2.83602C50.6683 2.77156 50.0559 3.15833 49.6369 3.86742C49.6047 3.89966 49.5724 3.96412 49.508 4.09304Z" fill="#EF492D"/>
<path d="M53.7617 23.6573V23.2383H53.6328V23.1416H54.0196V23.2383H53.8584V23.6573H53.7617ZM54.0841 23.6573V23.1738H54.2452L54.3419 23.4961L54.4386 23.1738H54.5998V23.6573H54.4708V23.2705L54.3741 23.6573H54.2774L54.1808 23.2705V23.6573H54.0841Z" fill="#EF492D"/>
</g>
<defs>
<clipPath id="clip0_13_735">
<rect width="88.862" height="39" fill="white"/>
</clipPath>
</defs>
</svg>
