<svg width="89" height="39" viewBox="0 0 89 39" fill="none" xmlns="http://www.w3.org/2000/svg">
<g clip-path="url(#clip0_13_767)">
<path d="M22.003 5.42028C22.003 5.32406 21.9067 5.25991 21.8105 5.22783C21.7464 5.22783 20.0464 5.09953 20.0464 5.09953C20.0464 5.09953 18.8917 3.94483 18.7634 3.81653C18.6351 3.68823 18.3785 3.7203 18.2822 3.75238C18.2822 3.75238 18.0256 3.81653 17.6407 3.94483C17.2558 2.8222 16.5823 1.7958 15.3634 1.7958C15.3313 1.7958 15.2993 1.7958 15.2672 1.7958C14.9144 1.34675 14.4974 1.1543 14.1446 1.1543C11.354 1.1543 10.0069 4.65048 9.5899 6.44668C8.49935 6.79951 7.72955 7.02404 7.63332 7.05611C7.02389 7.24856 6.99182 7.28064 6.92767 7.82591C6.86352 8.27496 5.25977 20.5918 5.25977 20.5918L17.6407 22.9333L24.3765 21.4899C24.3765 21.4578 22.003 5.51651 22.003 5.42028ZM16.9672 4.16935C16.6464 4.26558 16.2936 4.3618 15.9087 4.4901C15.9087 4.42595 15.9087 4.32973 15.9087 4.26558C15.9087 3.55993 15.8125 3.01465 15.6521 2.5656C16.2615 2.66183 16.6785 3.36748 16.9672 4.16935ZM14.8823 2.72598C15.0427 3.14295 15.171 3.78445 15.171 4.6184V4.74671C14.4974 4.97123 13.7597 5.19576 12.9899 5.42028C13.4068 3.78445 14.2087 3.01465 14.8823 2.72598ZM14.0483 1.9241C14.1766 1.9241 14.3049 1.95617 14.4012 2.0524C13.5031 2.46938 12.5408 3.52785 12.1238 5.67688C11.5144 5.86933 10.9371 6.02971 10.4239 6.22216C10.905 4.55425 12.0276 1.9241 14.0483 1.9241Z" fill="#95BF47"/>
<path d="M21.8104 5.22823C21.7462 5.22823 20.0463 5.09993 20.0463 5.09993C20.0463 5.09993 18.8916 3.94523 18.7633 3.81693C18.7312 3.78485 18.667 3.75278 18.5708 3.7207L17.6406 22.9337L24.3764 21.4903C24.3764 21.4903 22.0028 5.51691 22.0028 5.42068C21.9708 5.29238 21.8745 5.22823 21.8104 5.22823Z" fill="#5E8E3E"/>
<path d="M15.3637 8.94868L14.5297 11.4185C14.5297 11.4185 13.792 11.0336 12.926 11.0336C11.6109 11.0336 11.5467 11.8675 11.5467 12.06C11.5467 13.1826 14.4977 13.6316 14.4977 16.2618C14.4977 18.3467 13.1826 19.6618 11.4184 19.6618C9.30149 19.6618 8.21094 18.3467 8.21094 18.3467L8.78829 16.4542C8.78829 16.4542 9.91092 17.4165 10.8411 17.4165C11.4505 17.4165 11.7071 16.9354 11.7071 16.5825C11.7071 15.1071 9.30149 15.0429 9.30149 12.6373C9.30149 10.6166 10.7449 8.62793 13.6958 8.62793C14.8184 8.62793 15.3637 8.94868 15.3637 8.94868Z" fill="white"/>
<path d="M32.203 13.5673C31.5294 13.2145 31.1766 12.8937 31.1766 12.4768C31.1766 11.9315 31.6577 11.6107 32.3955 11.6107C33.2615 11.6107 34.0313 11.9636 34.0313 11.9636L34.6407 10.0711C34.6407 10.0711 34.0634 9.62207 32.4275 9.62207C30.1502 9.65415 28.5465 10.9692 28.5465 12.8296C28.5465 13.8881 29.2842 14.6899 30.2785 15.2673C31.0804 15.7163 31.3691 16.0371 31.3691 16.5182C31.3691 17.0314 30.9521 17.4163 30.2144 17.4163C29.0917 17.4163 28.0653 16.839 28.0653 16.839L27.4238 18.7314C27.4238 18.7314 28.3861 19.3729 30.0219 19.3729C32.3955 19.3729 34.0954 18.2182 34.0954 16.1012C34.0954 14.9786 33.2294 14.1767 32.203 13.5673Z" fill="black"/>
<path d="M41.6651 9.62214C40.5104 9.62214 39.5802 10.1674 38.8745 11.0334L38.8425 11.0014L39.8689 5.70898H37.2066L34.6406 19.2126H37.2708L38.1368 14.5938C38.4896 12.8617 39.3877 11.7712 40.2217 11.7712C40.8311 11.7712 41.0556 12.1882 41.0556 12.7334C41.0556 13.0863 41.0236 13.5353 40.9273 13.8881L39.933 19.1805H42.5632L43.5896 13.7278C43.7179 13.1504 43.782 12.4768 43.782 11.9957C43.8462 10.5202 43.0443 9.62214 41.6651 9.62214Z" fill="black"/>
<path d="M49.8119 9.62207C46.6365 9.62207 44.5195 12.5088 44.5195 15.6843C44.5195 17.7371 45.7705 19.3729 48.144 19.3729C51.2553 19.3729 53.3722 16.5824 53.3722 13.3107C53.4043 11.4183 52.2817 9.62207 49.8119 9.62207ZM48.5289 17.3522C47.6308 17.3522 47.2459 16.5824 47.2459 15.6201C47.2459 14.1126 48.0157 11.6428 49.4591 11.6428C50.3893 11.6428 50.71 12.4447 50.71 13.2466C50.71 14.8824 49.9081 17.3522 48.5289 17.3522Z" fill="black"/>
<path d="M60.1722 9.62207C58.376 9.62207 57.3817 11.1937 57.3817 11.1937H57.3496L57.51 9.78245H55.1685C55.0402 10.7447 54.8477 12.1881 54.6232 13.2786L52.7949 22.9653H55.4251L56.1628 19.0521H56.227C56.227 19.0521 56.7722 19.405 57.7666 19.405C60.8778 19.405 62.8986 16.2295 62.8986 12.99C62.8665 11.2258 62.0967 9.62207 60.1722 9.62207ZM57.6383 17.3842C56.9647 17.3842 56.5477 16.9993 56.5477 16.9993L56.9968 14.5296C57.3175 12.8937 58.1515 11.8032 59.0816 11.8032C59.8835 11.8032 60.1401 12.5409 60.1401 13.2466C60.108 14.9786 59.1137 17.3842 57.6383 17.3842Z" fill="black"/>
<path d="M66.6521 5.83789C65.8181 5.83789 65.1445 6.51147 65.1445 7.37749C65.1445 8.1473 65.6577 8.69257 66.3955 8.69257H66.4275C67.2615 8.69257 67.9671 8.1473 67.9671 7.15297C67.9671 6.38317 67.4539 5.83789 66.6521 5.83789Z" fill="black"/>
<path d="M62.9629 19.2126H65.593L67.3893 9.84668H64.727L62.9629 19.2126Z" fill="black"/>
<path d="M74.1257 9.81451H72.2975L72.3937 9.36546C72.5541 8.46736 73.0993 7.66548 73.9654 7.66548C74.4465 7.66548 74.7993 7.79378 74.7993 7.79378L75.3125 5.7089C75.3125 5.7089 74.8635 5.48438 73.8691 5.48438C72.939 5.48438 71.9767 5.74098 71.271 6.3504C70.3729 7.1202 69.956 8.24283 69.7314 9.33338L69.6673 9.78244H68.4484L68.0635 11.7711H69.2824L67.8711 19.1804H70.5012L71.9126 11.7711H73.7408L74.1257 9.81451Z" fill="black"/>
<path d="M80.4764 9.84668C80.4764 9.84668 78.8085 14.0164 78.0707 16.2938H78.0387C77.9745 15.556 77.3971 9.84668 77.3971 9.84668H74.6066L76.2104 18.4428C76.2424 18.6353 76.2424 18.7636 76.1462 18.8919C75.8255 19.5013 75.3123 20.0466 74.7028 20.4956C74.1896 20.8484 73.6444 21.105 73.1953 21.2333L73.933 23.4786C74.4783 23.3503 75.5689 22.9333 76.5311 22.0352C77.75 20.9126 78.8405 19.1485 79.9952 16.7749L83.2348 9.84668H80.4764Z" fill="black"/>
<path d="M23.6075 29.541L25.1471 32.6523L28.5792 33.1655L26.1094 35.5711L26.6867 38.9711L23.6075 37.3673L20.5604 38.9711L21.1377 35.5711L18.668 33.1655L22.1 32.6523L23.6075 29.541Z" fill="#FFD200"/>
<path d="M33.9365 29.541L35.4761 32.6523L38.876 33.1655L36.4063 35.5711L36.9836 38.9711L33.9365 37.3673L30.8573 38.9711L31.4667 35.5711L28.9648 33.1655L32.3969 32.6523L33.9365 29.541Z" fill="#FFD200"/>
<path d="M44.2325 29.541L45.7721 32.6523L49.2042 33.1655L46.7344 35.5711L47.3117 38.9711L44.2325 37.3673L41.1854 38.9711L41.7627 35.5711L39.293 33.1655L42.725 32.6523L44.2325 29.541Z" fill="#FFD200"/>
<path d="M54.5595 29.541L56.0991 32.6523L59.4991 33.1655L57.0293 35.5711L57.6067 38.9711L54.5595 37.3673L51.4803 38.9711L52.0897 35.5711L49.5879 33.1655L53.0199 32.6523L54.5595 29.541Z" fill="#FFD200"/>
<path d="M64.8556 29.541L66.3952 32.6523L69.8272 33.1655L67.3574 35.5711L67.9348 38.9711L64.8556 37.3673L61.8084 38.9711L62.3858 35.5711L59.916 33.1655L63.348 32.6523L64.8556 29.541Z" fill="#FFD200"/>
</g>
<defs>
<clipPath id="clip0_13_767">
<rect width="88.431" height="38.8108" fill="white"/>
</clipPath>
</defs>
</svg>
