<svg width="89" height="39" viewBox="0 0 89 39" fill="none" xmlns="http://www.w3.org/2000/svg">
<g clip-path="url(#clip0_13_785)">
<path d="M23.2227 7.69824H32.1716V9.36615H28.6433V18.7641H26.7188V9.36615H23.2227V7.69824ZM31.8188 10.7454H33.4867V12.285H33.5188C33.5829 12.0605 33.6791 11.868 33.8074 11.6435C33.9357 11.419 34.1282 11.2586 34.3527 11.0661C34.5772 10.9057 34.8018 10.7774 35.0584 10.6491C35.315 10.5529 35.5716 10.4888 35.8602 10.4888H36.2772C36.3414 10.4888 36.4376 10.5208 36.5338 10.5208V12.2208C36.4055 12.1888 36.2772 12.1888 36.1489 12.1567C36.0206 12.1567 35.8923 12.1246 35.764 12.1246C35.4753 12.1246 35.1867 12.1888 34.9301 12.3171C34.6735 12.4454 34.4489 12.6057 34.2565 12.8303C34.064 13.0548 33.9037 13.3435 33.7754 13.6963C33.6471 14.0491 33.615 14.434 33.615 14.8831V18.7H31.8509L31.8188 10.7454ZM44.6167 18.7641H42.8847V17.6415H42.8526C42.6281 18.0585 42.3073 18.3792 41.8904 18.6038C41.4734 18.8604 41.0243 18.9566 40.5753 18.9566C39.5168 18.9566 38.747 18.7 38.2979 18.1868C37.8168 17.6736 37.5923 16.8717 37.5923 15.8132V10.7454H39.3564V15.6529C39.3564 16.3585 39.4847 16.8396 39.7734 17.1283C40.03 17.417 40.4149 17.5774 40.896 17.5774C41.2809 17.5774 41.5696 17.5132 41.8262 17.417C42.0828 17.2887 42.2753 17.1604 42.4356 16.9679C42.596 16.7755 42.6922 16.551 42.7564 16.2944C42.8205 16.0378 42.8526 15.7491 42.8526 15.4283V10.7454H44.6167V18.7641ZM47.5997 16.1981C47.6639 16.7113 47.8563 17.0642 48.1771 17.2887C48.5299 17.4811 48.9148 17.6094 49.3959 17.6094C49.5563 17.6094 49.7487 17.6094 49.9733 17.5774C50.1978 17.5453 50.3902 17.5132 50.5506 17.417C50.7431 17.3528 50.8714 17.2245 50.9997 17.0962C51.128 16.9679 51.16 16.7755 51.16 16.551C51.16 16.3264 51.0638 16.134 50.9034 16.0057C50.7431 15.8453 50.5506 15.7491 50.3261 15.6529C50.0695 15.5566 49.8129 15.4925 49.4921 15.4283C49.1714 15.3642 48.8827 15.3 48.562 15.2359C48.2412 15.1717 47.9205 15.0755 47.5997 14.9793C47.311 14.8831 47.0224 14.7227 46.7658 14.5623C46.5092 14.4019 46.3167 14.1774 46.1884 13.8887C46.028 13.6001 45.9639 13.2793 45.9639 12.8623C45.9639 12.4133 46.0601 12.0605 46.2846 11.7718C46.5092 11.4831 46.7658 11.2265 47.0865 11.0661C47.4073 10.8737 47.7601 10.7774 48.1771 10.6812C48.562 10.6171 48.9469 10.585 49.3318 10.585C49.7487 10.585 50.1336 10.6171 50.5185 10.7133C50.9034 10.8095 51.2242 10.9378 51.5449 11.1303C51.8336 11.3227 52.0902 11.5793 52.3148 11.9001C52.5072 12.2208 52.6355 12.6057 52.6997 13.0548H50.8714C50.7751 12.6378 50.5827 12.3491 50.294 12.1888C50.0053 12.0284 49.6525 11.9642 49.2355 11.9642C49.1072 11.9642 48.9469 11.9642 48.7865 11.9963C48.6261 12.0284 48.4657 12.0605 48.3054 12.1246C48.145 12.1888 48.0167 12.2529 47.9205 12.3812C47.8242 12.4774 47.7601 12.6378 47.7601 12.7982C47.7601 13.0227 47.8242 13.1831 47.9846 13.3114C48.145 13.4397 48.3374 13.568 48.562 13.6321C48.8186 13.7284 49.0752 13.7925 49.3959 13.8567L50.3582 14.0491C50.6789 14.1133 50.9997 14.2095 51.2883 14.3057C51.6091 14.4019 51.8657 14.5623 52.1223 14.7227C52.3789 14.9151 52.5714 15.1076 52.6997 15.3963C52.828 15.6849 52.9242 16.0057 52.9242 16.3906C52.9242 16.8717 52.828 17.2566 52.6034 17.6094C52.3789 17.9302 52.0902 18.2189 51.7695 18.4113C51.4166 18.6038 51.0317 18.7641 50.6148 18.8604C50.1978 18.9566 49.7808 18.9887 49.3638 18.9887C48.8506 18.9887 48.4016 18.9245 47.9525 18.8283C47.5035 18.7321 47.1507 18.5396 46.8299 18.3151C46.5092 18.0906 46.2526 17.8019 46.0922 17.4491C45.8997 17.0962 45.8035 16.6793 45.8035 16.2302L47.5997 16.1981ZM53.4374 10.7454H54.7845V8.33974H56.5487V10.7454H58.1524V12.0605H56.5487V16.3585C56.5487 16.551 56.5487 16.7113 56.5807 16.8396C56.5807 16.9679 56.6449 17.0962 56.677 17.1925C56.7411 17.2887 56.8053 17.3528 56.9336 17.417C57.0619 17.4491 57.1902 17.4811 57.4147 17.4811H57.7996C57.9279 17.4811 58.0562 17.4491 58.1845 17.417V18.7962C57.992 18.8283 57.7996 18.8283 57.6071 18.8604C57.4147 18.8924 57.2222 18.8924 57.0298 18.8924C56.5487 18.8924 56.1958 18.8604 55.9072 18.7641C55.6185 18.6679 55.394 18.5396 55.2336 18.3792C55.0732 18.2189 54.977 17.9943 54.9128 17.7377C54.8487 17.4811 54.8166 17.1925 54.8166 16.8717V12.0925H53.4695L53.4374 10.7454ZM59.3713 10.7454H61.0392V11.8359H61.0712C61.3278 11.3548 61.6486 11.034 62.0977 10.8416C62.5467 10.6491 63.0278 10.5529 63.541 10.5529C64.1825 10.5529 64.7278 10.6491 65.1769 10.8737C65.658 11.0982 66.0429 11.3869 66.3636 11.7718C66.6844 12.1567 66.9089 12.6057 67.0693 13.1189C67.2297 13.6321 67.2938 14.1774 67.2938 14.7868C67.2938 15.3321 67.2297 15.8453 67.0693 16.3585C66.941 16.8717 66.7165 17.3208 66.4278 17.7057C66.1391 18.0906 65.7863 18.4113 65.3372 18.6358C64.8882 18.8604 64.4071 18.9887 63.7976 18.9887C63.541 18.9887 63.2844 18.9566 63.0278 18.9245C62.7712 18.8924 62.5146 18.7962 62.2901 18.7C62.0656 18.6038 61.841 18.4755 61.6486 18.3151C61.4561 18.1547 61.2958 17.9623 61.1354 17.7377H61.1033V21.7471H59.3392V10.7454H59.3713ZM65.5297 14.7548C65.5297 14.4019 65.4976 14.0491 65.4014 13.6963C65.3052 13.3435 65.1769 13.0548 64.9844 12.7982C64.792 12.5416 64.5674 12.3171 64.2788 12.1567C63.9901 11.9963 63.6693 11.9001 63.3165 11.9001C62.5788 11.9001 62.0014 12.1567 61.6486 12.6699C61.2637 13.1831 61.0712 13.8567 61.0712 14.7227C61.0712 15.1397 61.1033 15.4925 61.2316 15.8453C61.3278 16.1981 61.4882 16.4868 61.6807 16.7434C61.8731 17 62.0976 17.1925 62.3863 17.3208C62.675 17.4811 62.9637 17.5453 63.3486 17.5453C63.7656 17.5453 64.0863 17.4491 64.375 17.2887C64.6637 17.1283 64.8882 16.9038 65.0486 16.6472C65.241 16.3906 65.3693 16.0698 65.4335 15.7491C65.4976 15.4604 65.5297 15.1076 65.5297 14.7548ZM68.641 7.69824H70.4051V9.36615H68.641V7.69824ZM68.641 10.7454H70.4051V18.7641H68.641V10.7454ZM72.0089 7.69824H73.773V18.7641H72.0089V7.69824ZM79.1616 18.9887C78.5201 18.9887 77.9427 18.8924 77.4616 18.6679C76.9484 18.4434 76.5314 18.1547 76.1786 17.8019C75.8258 17.417 75.5692 16.9679 75.3767 16.4547C75.1843 15.9415 75.0881 15.3642 75.0881 14.7548C75.0881 14.1453 75.1843 13.568 75.3767 13.0548C75.5692 12.5416 75.8258 12.0925 76.1786 11.7076C76.5314 11.3227 76.9484 11.034 77.4616 10.8416C77.9748 10.6171 78.5201 10.5208 79.1616 10.5208C79.8031 10.5208 80.3804 10.6171 80.8616 10.8416C81.3748 11.0661 81.7918 11.3548 82.1446 11.7076C82.4974 12.0925 82.754 12.5416 82.9465 13.0548C83.1389 13.568 83.2351 14.1453 83.2351 14.7548C83.2351 15.3642 83.1389 15.9415 82.9465 16.4547C82.754 16.9679 82.4974 17.417 82.1446 17.8019C81.7918 18.1868 81.3748 18.4755 80.8616 18.6679C80.3804 18.8604 79.8031 18.9887 79.1616 18.9887ZM79.1616 17.5774C79.5465 17.5774 79.8993 17.4811 80.188 17.3208C80.4767 17.1604 80.7012 16.9359 80.8936 16.6793C81.0861 16.4227 81.2144 16.1019 81.3106 15.7812C81.4068 15.4604 81.4389 15.1076 81.4389 14.7548C81.4389 14.4019 81.4068 14.0812 81.3106 13.7284C81.2144 13.3755 81.0861 13.0869 80.8936 12.8303C80.7012 12.5737 80.4767 12.3491 80.188 12.1888C79.8993 12.0284 79.5465 11.9322 79.1616 11.9322C78.7767 11.9322 78.4239 12.0284 78.1352 12.1888C77.8465 12.3491 77.622 12.5737 77.4295 12.8303C77.2371 13.0869 77.1088 13.4076 77.0126 13.7284C76.9163 14.0812 76.8843 14.4019 76.8843 14.7548C76.8843 15.1076 76.9163 15.4604 77.0126 15.7812C77.1088 16.1019 77.2371 16.4227 77.4295 16.6793C77.622 16.9359 77.8465 17.1604 78.1352 17.3208C78.4239 17.5132 78.7767 17.5774 79.1616 17.5774ZM83.7163 10.7454H85.0634V8.33974H86.8275V10.7454H88.4313V12.0605H86.8275V16.3585C86.8275 16.551 86.8275 16.7113 86.8596 16.8396C86.8596 16.9679 86.9238 17.0962 86.9558 17.1925C87.02 17.2887 87.0841 17.3528 87.2124 17.417C87.3407 17.4491 87.469 17.4811 87.6936 17.4811H88.0785C88.2068 17.4811 88.3351 17.4491 88.4634 17.417V18.7962C88.2709 18.8283 88.0785 18.8283 87.886 18.8604C87.6936 18.8924 87.5011 18.8924 87.3087 18.8924C86.8275 18.8924 86.4747 18.8604 86.186 18.7641C85.8974 18.6679 85.6728 18.5396 85.5125 18.3792C85.3521 18.2189 85.2559 17.9943 85.1917 17.7377C85.1276 17.4811 85.0955 17.1925 85.0955 16.8717V12.0925H83.7483L83.7163 10.7454Z" fill="black"/>
<path d="M21.1696 7.69802H13.0866L10.5848 0L8.08292 7.69802H0L6.54332 12.4451L4.04146 20.1431L10.5848 15.396L17.1281 20.1431L14.6262 12.4451L21.1696 7.69802Z" fill="#00B67A"/>
<path d="M15.2028 14.1774L14.6254 12.4453L10.584 15.3962L15.2028 14.1774Z" fill="#005128"/>
<path d="M23.6064 29.3809L25.1139 32.4921L28.546 32.9733L26.0762 35.411L26.6535 38.8109L23.6064 37.2072L20.5272 38.8109L21.1045 35.411L18.6348 32.9733L22.0668 32.4921L23.6064 29.3809Z" fill="#FFD200"/>
<path d="M33.9025 29.3809L35.4421 32.4921L38.842 32.9733L36.3722 35.411L36.9496 38.8109L33.9025 37.2072L30.8553 38.8109L31.4327 35.411L28.9629 32.9733L32.3628 32.4921L33.9025 29.3809Z" fill="#FFD200"/>
<path d="M44.2314 29.3809L45.7389 32.4921L49.171 32.9733L46.7012 35.411L47.2785 38.8109L44.2314 37.2072L41.1522 38.8109L41.7295 35.411L39.2598 32.9733L42.6918 32.4921L44.2314 29.3809Z" fill="#FFD200"/>
<path d="M54.5275 29.3809L56.0671 32.4921L59.467 32.9733L56.9972 35.411L57.5746 38.8109L54.5275 37.2072L51.4803 38.8109L52.0577 35.411L49.5879 32.9733L52.9878 32.4921L54.5275 29.3809Z" fill="#FFD200"/>
<path d="M64.8224 29.3809L66.362 32.4921L69.794 32.9733L67.3242 35.411L67.9016 38.8109L64.8224 37.2072L61.7752 38.8109L62.3526 35.411L59.8828 32.9733L63.3148 32.4921L64.8224 29.3809Z" fill="#FFD200"/>
</g>
<defs>
<clipPath id="clip0_13_785">
<rect width="88.431" height="38.8108" fill="white"/>
</clipPath>
</defs>
</svg>
